<svg xmlns="http://www.w3.org/2000/svg" width="1280" height="720" viewBox="0 0 1280 720">
  <rect width="1280" height="720" fill="#0d1321"/>
  <rect x="60" y="60" width="1160" height="600" rx="24" fill="#151d30" stroke="#2a426a"/>
  <text x="110" y="130" fill="#8fb8ff" font-family="Arial" font-size="28" font-weight="700">Fieldgrade ProofOps</text>
  <text x="110" y="190" fill="#f4f7fb" font-family="Arial" font-size="52" font-weight="700">Evidence timeline overview</text>
  <rect x="110" y="240" width="320" height="140" rx="18" fill="#1d2b45"/>
  <rect x="480" y="240" width="320" height="140" rx="18" fill="#1d2b45"/>
  <rect x="850" y="240" width="260" height="140" rx="18" fill="#1d2b45"/>
  <text x="140" y="295" fill="#ffffff" font-family="Arial" font-size="26">Captured evidence</text>
  <text x="140" y="330" fill="#adc0dd" font-family="Arial" font-size="20">PDFs, screenshots, CSVs, notes</text>
  <text x="510" y="295" fill="#ffffff" font-family="Arial" font-size="26">Governed review</text>
  <text x="510" y="330" fill="#adc0dd" font-family="Arial" font-size="20">AUTO_MERGE · REVIEW_ONLY</text>
  <text x="880" y="295" fill="#ffffff" font-family="Arial" font-size="26">Export</text>
  <text x="880" y="330" fill="#adc0dd" font-family="Arial" font-size="20">Audit pack + bundle</text>
  <line x1="220" y1="450" x2="980" y2="450" stroke="#8fb8ff" stroke-width="6"/>
  <circle cx="250" cy="450" r="18" fill="#8fb8ff"/>
  <circle cx="520" cy="450" r="18" fill="#8fb8ff"/>
  <circle cx="780" cy="450" r="18" fill="#8fb8ff"/>
  <circle cx="980" cy="450" r="18" fill="#8fb8ff"/>
  <text x="190" y="510" fill="#adc0dd" font-family="Arial" font-size="22">Capture</text>
  <text x="460" y="510" fill="#adc0dd" font-family="Arial" font-size="22">Seal provenance</text>
  <text x="720" y="510" fill="#adc0dd" font-family="Arial" font-size="22">Review</text>
  <text x="930" y="510" fill="#adc0dd" font-family="Arial" font-size="22">Export proof</text>
</svg>
